<?xml version="1.0" standalone="no"?>
<!DOCTYPE svg PUBLIC "-//W3C//DTD SVG 20010904//EN"
 "http://www.w3.org/TR/2001/REC-SVG-20010904/DTD/svg10.dtd">
<svg version="1.0" xmlns="http://www.w3.org/2000/svg"
 width="262.000000pt" height="221.000000pt" viewBox="0 0 262.000000 221.000000"
 preserveAspectRatio="xMidYMid meet">

<g transform="translate(0.000000,221.000000) scale(0.100000,-0.100000)"
fill="#000000" stroke="none">
<path d="M146 1894 c-29 -38 -45 -68 -40 -73 8 -8 305 -238 1084 -841 366
-283 1160 -899 1177 -912 8 -6 27 11 62 58 l50 66 -97 77 c-53 42 -134 105
-180 140 l-83 64 49 51 c260 267 256 705 -8 980 l-76 79 -51 -69 -52 -69 54
-55 c108 -111 157 -229 157 -375 -1 -157 -42 -262 -147 -373 l-60 -64 -115 88
c-63 48 -168 130 -232 181 l-118 93 0 455 0 455 -82 0 -83 -1 -230 -204 c-126
-113 -235 -205 -242 -205 -7 0 -164 117 -348 260 -185 143 -336 260 -338 260
-1 0 -24 -30 -51 -66z"/>
<path d="M340 1358 c-1 -7 -1 -168 -1 -358 l0 -345 240 -3 239 -2 269 -240
268 -239 83 -1 82 0 0 153 -1 152 -330 260 c-182 143 -438 344 -568 447 -221
176 -280 212 -281 176z"/>
<path d="M1817 1222 c-41 -57 -45 -67 -33 -81 29 -34 46 -82 46 -133 0 -50 -7
-69 -51 -129 -10 -13 -3 -28 37 -81 27 -35 55 -63 61 -61 24 8 86 105 104 164
35 113 15 232 -55 327 -20 28 -42 52 -49 55 -7 3 -33 -23 -60 -61z"/>
</g>
</svg>
