<?xml version="1.0" standalone="no"?>
<!DOCTYPE svg PUBLIC "-//W3C//DTD SVG 20010904//EN"
 "http://www.w3.org/TR/2001/REC-SVG-20010904/DTD/svg10.dtd">
<svg version="1.0" xmlns="http://www.w3.org/2000/svg"
 width="64.000000pt" height="64.000000pt" viewBox="0 0 64.000000 64.000000"
 preserveAspectRatio="xMidYMid meet">
<metadata>
Created by potrace 1.16, written by Peter Selinger 2001-2019
</metadata>
<g transform="translate(0.000000,64.000000) scale(0.096970,-0.096970)"
fill="#000000" stroke="none">
<path d="M84 585 c-6 -16 3 -30 60 -92 l30 -33 -36 0 c-57 0 -68 -18 -68 -116
0 -119 4 -124 95 -124 74 0 75 0 168 -60 96 -61 115 -68 134 -49 8 8 17 2 34
-20 27 -36 69 -43 69 -12 0 26 -434 515 -460 519 -12 2 -23 -4 -26 -13z"/>
<path d="M358 533 c-43 -27 -77 -51 -78 -55 0 -9 179 -211 192 -216 4 -2 8 62
8 141 0 119 -3 148 -16 161 -8 9 -19 16 -22 16 -4 0 -42 -21 -84 -47z"/>
</g>
</svg>
